# xmcd
#
# Track frame offsets:
#	150
#	14547
#	32475
#	49045
#	66735
#	87230
#	99677
#	130160
#	141075
#	154280
#
# Disc length: 2316 seconds
#
# Revision: 1
# Processed by: cddbd v1.4PL0 Copyright (c) Steve Scherf et al.
# Submitted via: EasyCDDAExtractor 5.0.7
#
DISCID=8a090a0a
DTITLE=Walt Mills - There is Coming a Great Day
DYEAR=1997
DGENRE=Christian Country
TTITLE0=When I Think Of His Goodness
TTITLE1=At The Foot Of The Cross
TTITLE2=When I Learn To Love
TTITLE3=One Day Closer Home
TTITLE4=Peace Speaker
TTITLE5=A Know-So Kind Of Feeling
TTITLE6=Would You Nail Him To The Cross Again
TTITLE7=You Shall Be Filled
TTITLE8=There Is Coming A Great Day
TTITLE9=God's Great Grace
EXTD=
EXTT0=
EXTT1=
EXTT2=
EXTT3=
EXTT4=
EXTT5=
EXTT6=
EXTT7=
EXTT8=
EXTT9=
PLAYORDER=
